<?xml version="1.0" encoding="utf-8"?>
<!-- Generator: Adobe Illustrator 23.0.6, SVG Export Plug-In . SVG Version: 6.00 Build 0)  -->
<svg version="1.1" id="Layer_1" xmlns="http://www.w3.org/2000/svg" xmlns:xlink="http://www.w3.org/1999/xlink" x="0px" y="0px"
	 viewBox="0 0 80.6 92.8" style="enable-background:new 0 0 80.6 92.8;" xml:space="preserve">
<style type="text/css">
	.st0{fill:none;}
	.st1{fill:#FFFFFF;}
</style>
<g>
	<path class="st0" d="M58.1,5.3c0-1.3-1-2.3-2.3-2.3h-31c-1.3,0-2.3,1-2.3,2.3V15h35.6V5.3z"/>
	<path class="st0" d="M66.3,81c6.3,0,11.4-5.1,11.4-11.4V29.4c0-6.3-5.1-11.4-11.4-11.4h-5.2H19.6h-5.2C8.1,18,3,23.1,3,29.4v40.2
		C3,75.9,8.1,81,14.4,81H66.3z M52.6,40.6c2.3,0,4.2,1.9,4.2,4.2c0,2.3-1.9,4.2-4.2,4.2c-2.3,0-4.2-1.9-4.2-4.2
		C48.4,42.5,50.3,40.6,52.6,40.6z M51.2,59.6c0.7-0.7,1.8-0.7,2.4,0c0.7,0.7,0.7,1.8,0,2.4c-3.6,3.6-8.4,5.4-13.2,5.4
		c-4.8,0-9.6-1.8-13.2-5.4c-0.7-0.7-0.7-1.8,0-2.4s1.8-0.7,2.4,0C35.5,65.6,45.2,65.6,51.2,59.6z M28.1,40.6c2.3,0,4.2,1.9,4.2,4.2
		c0,2.3-1.9,4.2-4.2,4.2c-2.3,0-4.2-1.9-4.2-4.2C23.9,42.5,25.8,40.6,28.1,40.6z"/>
	<rect x="16.9" y="84" class="st0" width="46.9" height="5.9"/>
	<path d="M66.7,92.8v-3v-3.4V84c7.7-0.2,13.9-6.6,13.9-14.4V29.4c0-7.9-6.5-14.4-14.4-14.4h-5.2V5.3c0-2.9-2.4-5.3-5.3-5.3h-31
		c-2.9,0-5.3,2.4-5.3,5.3V15h-5.2C6.5,15,0,21.5,0,29.4v40.2C0,77.4,6.2,83.7,13.9,84v2.5v3.4v3H66.7z M63.8,89.9H16.9V84h46.9V89.9
		z M22.5,5.3c0-1.3,1-2.3,2.3-2.3h31c1.3,0,2.3,1,2.3,2.3V15H22.5V5.3z M61.1,18"/>
	<circle class="st1" cx="28.1" cy="44.8" r="4.2"/>
	<circle class="st1" cx="52.6" cy="44.8" r="4.2"/>
	<path class="st1" d="M27.1,59.6c-0.7,0.7-0.7,1.8,0,2.4c3.6,3.6,8.4,5.4,13.2,5.4s9.6-1.8,13.2-5.4c0.7-0.7,0.7-1.8,0-2.4
		c-0.7-0.7-1.8-0.7-2.4,0c-5.9,5.9-15.6,5.9-21.6,0C28.9,59,27.8,59,27.1,59.6z"/>
</g>
<polygon points="-126.1,41.6 -127.3,41.6 -127.3,41.6 -126.1,41.6 "/>
</svg>
